<?xml version="1.0" encoding="utf-8"?>
<!-- Generator: Adobe Illustrator 21.0.0, SVG Export Plug-In . SVG Version: 6.00 Build 0)  -->
<svg version="1.1" id="图层_1" xmlns="http://www.w3.org/2000/svg" xmlns:xlink="http://www.w3.org/1999/xlink" x="0px" y="0px"
	 viewBox="0 0 87.7 87.7" style="enable-background:new 0 0 87.7 87.7;" xml:space="preserve">
<title>icon</title>
<path d="M14,73.7V14h59.6v59.6H14z M24.7,17.5l45.6,46.1c0-4.5,0.1-8.6,0-12.7c-0.1-0.9-0.4-1.7-1-2.3c-10-10-20-19.9-29.9-29.8
	c-0.6-0.7-1.3-1.1-2.2-1.3C32.9,17.5,28.7,17.5,24.7,17.5z M63.9,70.2L17.5,24c0,4.6,0,8.7,0,12.9c0.1,0.6,0.4,1.2,0.9,1.7
	C28.5,48.8,38.6,59,48.7,69.1c0.4,0.5,1,0.9,1.7,1C54.7,70.2,59,70.2,63.9,70.2z M37.2,70.2L17.5,50.6c0,3.8,0.2,7.2-0.1,10.6
	c-0.3,2.1,0.6,4.1,2.3,5.3c1.6,1.2,3,3.4,4.7,3.6C28.3,70.6,32.4,70.2,37.2,70.2L37.2,70.2z M70.2,37.2c0-4.6,0-8.4,0-12.1
	c0-1.6-5.1-7.5-6.7-7.5c-4.1-0.1-8.2,0-12.9,0L70.2,37.2z"/>
</svg>
